<mxfile host="app.diagrams.net" agent="Mozilla/5.0 (Windows NT 10.0; Win64; x64) AppleWebKit/537.36 (KHTML, like Gecko) Chrome/129.0.0.0 Safari/537.36" version="24.7.17">
  <diagram name="Page-1" id="CVuVDDuKrzi85VDv05o0">
    <mxGraphModel dx="1909" dy="2049" grid="1" gridSize="10" guides="1" tooltips="1" connect="1" arrows="1" fold="1" page="1" pageScale="1" pageWidth="850" pageHeight="1100" math="0" shadow="0">
      <root>
        <mxCell id="0" />
        <mxCell id="1" parent="0" />
        <mxCell id="YoFYP7dNoOhtPN3r3ixM-2" value="" style="shape=mxgraph.signs.animals.deer_1;html=1;pointerEvents=1;fillColor=#000000;strokeColor=none;verticalLabelPosition=bottom;verticalAlign=top;align=center;" vertex="1" parent="1">
          <mxGeometry x="130" y="120" width="50" height="80" as="geometry" />
        </mxCell>
        <mxCell id="YoFYP7dNoOhtPN3r3ixM-3" value="" style="shape=mxgraph.signs.animals.bear_1;html=1;pointerEvents=1;fillColor=#000000;strokeColor=none;verticalLabelPosition=bottom;verticalAlign=top;align=center;" vertex="1" parent="1">
          <mxGeometry x="160" y="210" width="80" height="50" as="geometry" />
        </mxCell>
        <mxCell id="YoFYP7dNoOhtPN3r3ixM-4" value="" style="curved=1;endArrow=classic;html=1;rounded=0;" edge="1" parent="1">
          <mxGeometry width="50" height="50" relative="1" as="geometry">
            <mxPoint x="200" y="190" as="sourcePoint" />
            <mxPoint x="270" y="160" as="targetPoint" />
            <Array as="points">
              <mxPoint x="250" y="190" />
              <mxPoint x="200" y="140" />
            </Array>
          </mxGeometry>
        </mxCell>
        <mxCell id="YoFYP7dNoOhtPN3r3ixM-6" value="" style="fillColor=#4BC05B;strokeColor=none;whiteSpace=wrap;html=1;" vertex="1" parent="1">
          <mxGeometry x="280" y="120" width="135" height="110" as="geometry" />
        </mxCell>
        <mxCell id="YoFYP7dNoOhtPN3r3ixM-13" value="field" style="text;strokeColor=none;fillColor=none;html=1;fontSize=24;fontStyle=0;verticalAlign=middle;align=center;labelBackgroundColor=none;labelBorderColor=none;textShadow=0;fontColor=#0a0a0a;" vertex="1" parent="1">
          <mxGeometry x="297.5" y="225" width="100" height="40" as="geometry" />
        </mxCell>
        <mxCell id="YoFYP7dNoOhtPN3r3ixM-16" value="" style="ellipse;whiteSpace=wrap;html=1;aspect=fixed;" vertex="1" parent="1">
          <mxGeometry x="460" y="100" width="62" height="62" as="geometry" />
        </mxCell>
        <mxCell id="YoFYP7dNoOhtPN3r3ixM-19" style="edgeStyle=orthogonalEdgeStyle;rounded=0;orthogonalLoop=1;jettySize=auto;html=1;exitX=0.5;exitY=1;exitDx=0;exitDy=0;spacing=7;spacingBottom=4;textOpacity=0;" edge="1" parent="1" source="YoFYP7dNoOhtPN3r3ixM-16" target="YoFYP7dNoOhtPN3r3ixM-16">
          <mxGeometry relative="1" as="geometry" />
        </mxCell>
        <mxCell id="YoFYP7dNoOhtPN3r3ixM-20" value="" style="ellipse;whiteSpace=wrap;html=1;aspect=fixed;" vertex="1" parent="1">
          <mxGeometry x="460" y="180" width="62" height="62" as="geometry" />
        </mxCell>
        <mxCell id="YoFYP7dNoOhtPN3r3ixM-21" value="PI Sensors" style="text;html=1;align=center;verticalAlign=middle;whiteSpace=wrap;rounded=0;fontStyle=1" vertex="1" parent="1">
          <mxGeometry x="460" y="116" width="60" height="30" as="geometry" />
        </mxCell>
        <mxCell id="YoFYP7dNoOhtPN3r3ixM-22" value="ESP32&lt;div&gt;camera&lt;/div&gt;" style="text;html=1;align=center;verticalAlign=middle;whiteSpace=wrap;rounded=0;fontStyle=1" vertex="1" parent="1">
          <mxGeometry x="461" y="195" width="60" height="30" as="geometry" />
        </mxCell>
        <mxCell id="YoFYP7dNoOhtPN3r3ixM-23" value="" style="endArrow=none;html=1;rounded=0;" edge="1" parent="1">
          <mxGeometry width="50" height="50" relative="1" as="geometry">
            <mxPoint x="440" y="220" as="sourcePoint" />
            <mxPoint x="440" y="130" as="targetPoint" />
            <Array as="points" />
          </mxGeometry>
        </mxCell>
        <mxCell id="YoFYP7dNoOhtPN3r3ixM-26" value="" style="endArrow=none;html=1;rounded=0;exitX=1.016;exitY=0.547;exitDx=0;exitDy=0;exitPerimeter=0;" edge="1" parent="1" source="YoFYP7dNoOhtPN3r3ixM-10">
          <mxGeometry width="50" height="50" relative="1" as="geometry">
            <mxPoint x="412.5" y="180" as="sourcePoint" />
            <mxPoint x="440" y="180" as="targetPoint" />
            <Array as="points">
              <mxPoint x="422.5" y="180" />
            </Array>
          </mxGeometry>
        </mxCell>
        <mxCell id="YoFYP7dNoOhtPN3r3ixM-29" value="" style="endArrow=classic;html=1;rounded=0;" edge="1" parent="1">
          <mxGeometry width="50" height="50" relative="1" as="geometry">
            <mxPoint x="441" y="220" as="sourcePoint" />
            <mxPoint x="461" y="220" as="targetPoint" />
            <Array as="points">
              <mxPoint x="441" y="220" />
            </Array>
          </mxGeometry>
        </mxCell>
        <mxCell id="YoFYP7dNoOhtPN3r3ixM-30" value="" style="endArrow=classic;html=1;rounded=0;" edge="1" parent="1">
          <mxGeometry width="50" height="50" relative="1" as="geometry">
            <mxPoint x="441" y="130.5" as="sourcePoint" />
            <mxPoint x="461" y="130.5" as="targetPoint" />
            <Array as="points">
              <mxPoint x="441" y="130.5" />
            </Array>
          </mxGeometry>
        </mxCell>
        <mxCell id="YoFYP7dNoOhtPN3r3ixM-37" value="" style="endArrow=none;html=1;rounded=0;exitX=0.5;exitY=0;exitDx=0;exitDy=0;" edge="1" parent="1" source="YoFYP7dNoOhtPN3r3ixM-20">
          <mxGeometry width="50" height="50" relative="1" as="geometry">
            <mxPoint x="490.91999999999996" y="192" as="sourcePoint" />
            <mxPoint x="490.91999999999996" y="162" as="targetPoint" />
          </mxGeometry>
        </mxCell>
        <mxCell id="YoFYP7dNoOhtPN3r3ixM-39" value="" style="endArrow=none;html=1;rounded=0;" edge="1" parent="1" target="YoFYP7dNoOhtPN3r3ixM-10">
          <mxGeometry width="50" height="50" relative="1" as="geometry">
            <mxPoint x="412.5" y="180" as="sourcePoint" />
            <mxPoint x="440" y="180" as="targetPoint" />
            <Array as="points" />
          </mxGeometry>
        </mxCell>
        <mxCell id="YoFYP7dNoOhtPN3r3ixM-10" value="" style="rounded=1;whiteSpace=wrap;html=1;strokeWidth=0;fillWeight=4;hachureGap=8;hachureAngle=45;fillColor=#0e6d09;sketch=1;strokeColor=#82b366;" vertex="1" parent="1">
          <mxGeometry x="282.5" y="125" width="130" height="100" as="geometry" />
        </mxCell>
        <mxCell id="YoFYP7dNoOhtPN3r3ixM-42" value="" style="endArrow=classic;html=1;rounded=0;" edge="1" parent="1">
          <mxGeometry width="50" height="50" relative="1" as="geometry">
            <mxPoint x="490" y="175.06" as="sourcePoint" />
            <mxPoint x="560" y="174.95" as="targetPoint" />
            <Array as="points" />
          </mxGeometry>
        </mxCell>
        <mxCell id="YoFYP7dNoOhtPN3r3ixM-43" value="" style="rounded=1;whiteSpace=wrap;html=1;" vertex="1" parent="1">
          <mxGeometry x="750" y="100" width="240" height="170" as="geometry" />
        </mxCell>
        <mxCell id="YoFYP7dNoOhtPN3r3ixM-44" value="" style="endArrow=none;dashed=1;html=1;rounded=0;exitX=0.332;exitY=0.017;exitDx=0;exitDy=0;exitPerimeter=0;" edge="1" parent="1" source="YoFYP7dNoOhtPN3r3ixM-43">
          <mxGeometry width="50" height="50" relative="1" as="geometry">
            <mxPoint x="770" y="160" as="sourcePoint" />
            <mxPoint x="830" y="270" as="targetPoint" />
            <Array as="points">
              <mxPoint x="830" y="177" />
            </Array>
          </mxGeometry>
        </mxCell>
        <mxCell id="YoFYP7dNoOhtPN3r3ixM-45" value="" style="endArrow=none;dashed=1;html=1;rounded=0;exitX=0.332;exitY=0.017;exitDx=0;exitDy=0;exitPerimeter=0;" edge="1" parent="1">
          <mxGeometry width="50" height="50" relative="1" as="geometry">
            <mxPoint x="910" y="101.5" as="sourcePoint" />
            <mxPoint x="910" y="270" as="targetPoint" />
            <Array as="points">
              <mxPoint x="910" y="175.5" />
            </Array>
          </mxGeometry>
        </mxCell>
        <mxCell id="YoFYP7dNoOhtPN3r3ixM-47" value="Training set" style="text;strokeColor=none;fillColor=none;align=center;verticalAlign=middle;spacingLeft=4;spacingRight=4;overflow=hidden;points=[[0,0.5],[1,0.5]];portConstraint=eastwest;rotatable=0;whiteSpace=wrap;html=1;" vertex="1" parent="1">
          <mxGeometry x="760" y="162" width="60" height="30" as="geometry" />
        </mxCell>
        <mxCell id="YoFYP7dNoOhtPN3r3ixM-48" value="Test Data" style="text;strokeColor=none;fillColor=none;align=left;verticalAlign=middle;spacingLeft=4;spacingRight=4;overflow=hidden;points=[[0,0.5],[1,0.5]];portConstraint=eastwest;rotatable=0;whiteSpace=wrap;html=1;" vertex="1" parent="1">
          <mxGeometry x="840" y="162" width="80" height="30" as="geometry" />
        </mxCell>
        <mxCell id="YoFYP7dNoOhtPN3r3ixM-49" value="Validation Data" style="text;strokeColor=none;fillColor=none;align=center;verticalAlign=middle;spacingLeft=4;spacingRight=4;overflow=hidden;points=[[0,0.5],[1,0.5]];portConstraint=eastwest;rotatable=0;whiteSpace=wrap;html=1;" vertex="1" parent="1">
          <mxGeometry x="910" y="165" width="80" height="30" as="geometry" />
        </mxCell>
        <mxCell id="YoFYP7dNoOhtPN3r3ixM-56" style="edgeStyle=orthogonalEdgeStyle;rounded=0;orthogonalLoop=1;jettySize=auto;html=1;exitX=0.5;exitY=1;exitDx=0;exitDy=0;entryX=0.542;entryY=0;entryDx=0;entryDy=0;entryPerimeter=0;" edge="1" parent="1" source="YoFYP7dNoOhtPN3r3ixM-50" target="YoFYP7dNoOhtPN3r3ixM-43">
          <mxGeometry relative="1" as="geometry">
            <mxPoint x="879.9444444444443" y="40" as="targetPoint" />
          </mxGeometry>
        </mxCell>
        <mxCell id="YoFYP7dNoOhtPN3r3ixM-50" value="" style="image;html=1;image=img/lib/clip_art/networking/Cloud_Storage_128x128.png" vertex="1" parent="1">
          <mxGeometry x="785" y="-110" width="190" height="150" as="geometry" />
        </mxCell>
        <mxCell id="YoFYP7dNoOhtPN3r3ixM-58" value="Cloud&lt;div&gt;Storage&lt;/div&gt;" style="text;strokeColor=none;fillColor=none;html=1;fontSize=24;fontStyle=1;verticalAlign=middle;align=center;fontColor=#121212;" vertex="1" parent="1">
          <mxGeometry x="840" y="-150" width="120" height="40" as="geometry" />
        </mxCell>
        <mxCell id="YoFYP7dNoOhtPN3r3ixM-61" value="" style="verticalLabelPosition=bottom;verticalAlign=top;html=1;shape=mxgraph.basic.rect;fillColor2=none;strokeWidth=1;size=20;indent=5;" vertex="1" parent="1">
          <mxGeometry x="560" y="120" width="140" height="150" as="geometry" />
        </mxCell>
        <UserObject label="Arduino uno" placeholders="1" name="Variable" id="YoFYP7dNoOhtPN3r3ixM-63">
          <mxCell style="text;html=1;strokeColor=none;fillColor=none;align=center;verticalAlign=middle;whiteSpace=wrap;overflow=hidden;fontStyle=1" vertex="1" parent="1">
            <mxGeometry x="590" y="185" width="80" height="20" as="geometry" />
          </mxCell>
        </UserObject>
        <mxCell id="YoFYP7dNoOhtPN3r3ixM-64" value="" style="pointerEvents=1;verticalLabelPosition=bottom;shadow=0;dashed=0;align=center;html=1;verticalAlign=top;shape=mxgraph.electrical.electro-mechanical.buzzer;direction=south;fontColor=none;noLabel=1;fillColor=default;strokeColor=default;" vertex="1" parent="1">
          <mxGeometry x="615" y="440" width="50" height="40" as="geometry" />
        </mxCell>
        <mxCell id="YoFYP7dNoOhtPN3r3ixM-67" value="" style="strokeWidth=2;html=1;shape=mxgraph.flowchart.annotation_2;align=left;labelPosition=right;pointerEvents=1;direction=north;" vertex="1" parent="1">
          <mxGeometry x="610" y="270" width="230" height="175" as="geometry" />
        </mxCell>
        <mxCell id="YoFYP7dNoOhtPN3r3ixM-70" value="" style="rounded=1;absoluteArcSize=1;arcSize=14;strokeWidth=2;fillColor=none;" vertex="1" parent="1">
          <mxGeometry x="590" y="400" width="100" height="100" as="geometry" />
        </mxCell>
        <UserObject label="Buzzer" placeholders="1" name="Variable" id="YoFYP7dNoOhtPN3r3ixM-71">
          <mxCell style="text;html=1;strokeColor=none;fillColor=none;align=center;verticalAlign=middle;whiteSpace=wrap;overflow=hidden;fontStyle=1" vertex="1" parent="1">
            <mxGeometry x="600" y="410" width="80" height="20" as="geometry" />
          </mxCell>
        </UserObject>
        <mxCell id="YoFYP7dNoOhtPN3r3ixM-72" value="" style="verticalLabelPosition=bottom;shadow=0;dashed=0;align=center;html=1;verticalAlign=top;shape=mxgraph.electrical.opto_electronics.led_1;pointerEvents=1;" vertex="1" parent="1">
          <mxGeometry x="760" y="427.5" width="100" height="65" as="geometry" />
        </mxCell>
        <mxCell id="YoFYP7dNoOhtPN3r3ixM-74" value="" style="rounded=1;absoluteArcSize=1;arcSize=14;strokeWidth=2;fillColor=none;" vertex="1" parent="1">
          <mxGeometry x="760" y="400" width="100" height="100" as="geometry" />
        </mxCell>
        <mxCell id="YoFYP7dNoOhtPN3r3ixM-79" value="" style="endArrow=classic;html=1;rounded=0;" edge="1" parent="1">
          <mxGeometry relative="1" as="geometry">
            <mxPoint x="700" y="180" as="sourcePoint" />
            <mxPoint x="750" y="179.8" as="targetPoint" />
          </mxGeometry>
        </mxCell>
        <mxCell id="YoFYP7dNoOhtPN3r3ixM-80" value="" style="shape=message;html=1;outlineConnect=0;" vertex="1" parent="YoFYP7dNoOhtPN3r3ixM-79">
          <mxGeometry width="20" height="14" relative="1" as="geometry">
            <mxPoint x="-10" y="-7" as="offset" />
          </mxGeometry>
        </mxCell>
        <mxCell id="YoFYP7dNoOhtPN3r3ixM-84" value="" style="line;strokeWidth=2;html=1;" vertex="1" parent="1">
          <mxGeometry x="690" y="440" width="70" height="10" as="geometry" />
        </mxCell>
        <UserObject label="LED" placeholders="1" name="Variable" id="YoFYP7dNoOhtPN3r3ixM-85">
          <mxCell style="text;html=1;strokeColor=none;fillColor=none;align=center;verticalAlign=middle;whiteSpace=wrap;overflow=hidden;fontStyle=1" vertex="1" parent="1">
            <mxGeometry x="770" y="410" width="80" height="20" as="geometry" />
          </mxCell>
        </UserObject>
        <mxCell id="YoFYP7dNoOhtPN3r3ixM-86" value="" style="endArrow=classic;html=1;rounded=0;" edge="1" parent="1">
          <mxGeometry width="50" height="50" relative="1" as="geometry">
            <mxPoint x="630" y="10" as="sourcePoint" />
            <mxPoint x="629.68" y="119.99516129032244" as="targetPoint" />
          </mxGeometry>
        </mxCell>
        <mxCell id="YoFYP7dNoOhtPN3r3ixM-87" value="" style="shape=image;html=1;verticalAlign=top;verticalLabelPosition=bottom;labelBackgroundColor=#ffffff;imageAspect=0;aspect=fixed;image=https://cdn2.iconfinder.com/data/icons/business-and-education-1/512/133_Solar_Panel_Energy_technology_smart_city_technology_smart-128.png" vertex="1" parent="1">
          <mxGeometry x="520" y="-30" width="70" height="70" as="geometry" />
        </mxCell>
        <mxCell id="YoFYP7dNoOhtPN3r3ixM-88" value="" style="verticalLabelPosition=bottom;shadow=0;dashed=0;align=center;fillColor=strokeColor;html=1;verticalAlign=top;strokeWidth=1;shape=mxgraph.electrical.miscellaneous.monocell_battery;" vertex="1" parent="1">
          <mxGeometry x="665" y="-15" width="70" height="40" as="geometry" />
        </mxCell>
        <mxCell id="YoFYP7dNoOhtPN3r3ixM-89" value="" style="rounded=1;whiteSpace=wrap;html=1;fillColor=none;" vertex="1" parent="1">
          <mxGeometry x="497.5" y="-35" width="115" height="80" as="geometry" />
        </mxCell>
        <mxCell id="YoFYP7dNoOhtPN3r3ixM-90" value="" style="rounded=1;whiteSpace=wrap;html=1;fillColor=none;" vertex="1" parent="1">
          <mxGeometry x="645" y="-35" width="115" height="80" as="geometry" />
        </mxCell>
        <mxCell id="YoFYP7dNoOhtPN3r3ixM-92" value="" style="endArrow=none;html=1;rounded=0;exitX=1.006;exitY=0.563;exitDx=0;exitDy=0;exitPerimeter=0;" edge="1" parent="1" source="YoFYP7dNoOhtPN3r3ixM-89">
          <mxGeometry width="50" height="50" relative="1" as="geometry">
            <mxPoint x="618.075" y="10.200000000000045" as="sourcePoint" />
            <mxPoint x="645" y="10" as="targetPoint" />
          </mxGeometry>
        </mxCell>
        <mxCell id="YoFYP7dNoOhtPN3r3ixM-95" value="" style="sketch=0;outlineConnect=0;fontColor=#232F3E;gradientColor=none;fillColor=#050505;strokeColor=none;dashed=0;verticalLabelPosition=bottom;verticalAlign=top;align=center;html=1;fontSize=12;fontStyle=0;aspect=fixed;pointerEvents=1;shape=mxgraph.aws4.mobile_client;strokeWidth=17;" vertex="1" parent="1">
          <mxGeometry x="372.69" y="300" width="94.61" height="180" as="geometry" />
        </mxCell>
        <mxCell id="YoFYP7dNoOhtPN3r3ixM-96" value="mobile" style="text;strokeColor=none;fillColor=none;html=1;fontSize=24;fontStyle=1;verticalAlign=middle;align=center;" vertex="1" parent="1">
          <mxGeometry x="367.3" y="387.5" width="100" height="40" as="geometry" />
        </mxCell>
        <mxCell id="YoFYP7dNoOhtPN3r3ixM-97" value="" style="endArrow=classic;html=1;rounded=0;" edge="1" parent="1">
          <mxGeometry relative="1" as="geometry">
            <mxPoint x="670" y="400" as="sourcePoint" />
            <mxPoint x="770" y="400" as="targetPoint" />
          </mxGeometry>
        </mxCell>
        <mxCell id="YoFYP7dNoOhtPN3r3ixM-98" value="Label" style="edgeLabel;resizable=0;html=1;;align=center;verticalAlign=middle;" connectable="0" vertex="1" parent="YoFYP7dNoOhtPN3r3ixM-97">
          <mxGeometry relative="1" as="geometry" />
        </mxCell>
        <mxCell id="YoFYP7dNoOhtPN3r3ixM-99" value="" style="endArrow=classic;html=1;rounded=0;" edge="1" parent="1">
          <mxGeometry relative="1" as="geometry">
            <mxPoint x="440" y="600" as="sourcePoint" />
            <mxPoint x="310" y="600" as="targetPoint" />
          </mxGeometry>
        </mxCell>
        <mxCell id="YoFYP7dNoOhtPN3r3ixM-100" value="Label" style="edgeLabel;resizable=0;html=1;;align=center;verticalAlign=middle;" connectable="0" vertex="1" parent="YoFYP7dNoOhtPN3r3ixM-99">
          <mxGeometry relative="1" as="geometry" />
        </mxCell>
        <mxCell id="YoFYP7dNoOhtPN3r3ixM-101" value="" style="endArrow=classic;html=1;rounded=0;exitX=0.654;exitY=-0.01;exitDx=0;exitDy=0;exitPerimeter=0;" edge="1" parent="1" source="YoFYP7dNoOhtPN3r3ixM-67">
          <mxGeometry relative="1" as="geometry">
            <mxPoint x="580" y="330" as="sourcePoint" />
            <mxPoint x="480" y="330" as="targetPoint" />
          </mxGeometry>
        </mxCell>
        <mxCell id="YoFYP7dNoOhtPN3r3ixM-102" value="" style="shape=message;html=1;outlineConnect=0;" vertex="1" parent="YoFYP7dNoOhtPN3r3ixM-101">
          <mxGeometry width="20" height="14" relative="1" as="geometry">
            <mxPoint x="-10" y="-7" as="offset" />
          </mxGeometry>
        </mxCell>
        <mxCell id="YoFYP7dNoOhtPN3r3ixM-103" value="Message" style="text;html=1;align=center;verticalAlign=middle;whiteSpace=wrap;rounded=0;fontStyle=1" vertex="1" parent="1">
          <mxGeometry x="510" y="290" width="60" height="30" as="geometry" />
        </mxCell>
        <mxCell id="YoFYP7dNoOhtPN3r3ixM-106" value="" style="shape=image;html=1;verticalAlign=top;verticalLabelPosition=bottom;labelBackgroundColor=#ffffff;imageAspect=0;aspect=fixed;image=https://cdn4.iconfinder.com/data/icons/basic-user-interface-2/512/User_Interface-42-128.png" vertex="1" parent="1">
          <mxGeometry x="361" y="210" width="128" height="128" as="geometry" />
        </mxCell>
        <mxCell id="YoFYP7dNoOhtPN3r3ixM-108" value="" style="shape=image;html=1;verticalAlign=top;verticalLabelPosition=bottom;labelBackgroundColor=#ffffff;imageAspect=0;aspect=fixed;image=https://cdn0.iconfinder.com/data/icons/kameleon-free-pack/110/Farmer-128.png" vertex="1" parent="1">
          <mxGeometry x="381.25" y="332.5" width="77.5" height="77.5" as="geometry" />
        </mxCell>
      </root>
    </mxGraphModel>
  </diagram>
</mxfile>
